# xmcd CD database file
#
# Track frame offsets:
#	150
#	20787
#	30007
#	41450
#	56750
#	66195
#	74887
#	90605
#	106537
#	120142
#	136912
#	143250
#	154343
#	165045
#	178058
#	195068
#	206105
#	215678
#	221736
#	234012
#	250887
#	259517
#	279117
#	287937
#	291563
#	312200
#	321420
#
# Disc length: 4436 seconds
#
# Revision: 0
# Processed by: cddbd v1.4PL0 Copyright (c) Steve Scherf et al.
# Submitted via: CDex 1.50Beta7
#
DISCID=8111521b
DTITLE=Jan Johansson - Jazz på svenska - Jazz på ryska
DYEAR=1900
DGENRE=Jazz
TTITLE0=Visa från utanmyra
TTITLE1=Gånglek från Älvdalen
TTITLE2=Polska från Medelpad
TTITLE3=Visa från rättvik
TTITLE4=Brudmarsch efter Larshöga Jonke
TTITLE5=Vallåt från Jämtland
TTITLE6=Emigrantvisa
TTITLE7=Berg-Kirstis polska
TTITLE8=Leksands skänklåt
TTITLE9=Gammal bröllopsmarsch
TTITLE10=Visa från Järna
TTITLE11=Polska efter Höök-Olle
TTITLE12=Nära hemmet
TTITLE13=På ängen stod en björk
TTITLE14=Stepp, min stepp
TTITLE15=Bandura
TTITLE16=Längs floden
TTITLE17=Det går en kosack
TTITLE18=Mellan branta stränder
TTITLE19=Pråmdragarnas sång på Volga
TTITLE20=Jag broderade till gryningen
TTITLE21=Kvällar i Moskvas förstäder
TTITLE22=Entodigt klingar den lilla klockan
TTITLE23=Ströva omkring
TTITLE24=fel1
TTITLE25=fel2
TTITLE26=fel3
EXTD=
EXTT0=
EXTT1=
EXTT2=
EXTT3=
EXTT4=
EXTT5=
EXTT6=
EXTT7=
EXTT8=
EXTT9=
EXTT10=
EXTT11=
EXTT12=
EXTT13=
EXTT14=
EXTT15=
EXTT16=
EXTT17=
EXTT18=
EXTT19=
EXTT20=
EXTT21=
EXTT22=
EXTT23=
EXTT24=
EXTT25=
EXTT26=
PLAYORDER=
